<mxfile host="www.draw.io" modified="2020-03-26T09:36:38.359Z" agent="Mozilla/5.0 (Macintosh; Intel Mac OS X 10_13_6) AppleWebKit/537.36 (KHTML, like Gecko) Chrome/80.0.3987.149 Safari/537.36" etag="nxioF4YukYc6DMekyaXN" version="12.9.3" type="github">
  <diagram id="kiwEgxho3_xadNbk6e_G" name="Page-1">
    <mxGraphModel dx="892" dy="498" grid="1" gridSize="10" guides="1" tooltips="1" connect="1" arrows="1" fold="1" page="1" pageScale="1" pageWidth="827" pageHeight="1169" math="0" shadow="0">
      <root>
        <mxCell id="0" />
        <mxCell id="1" parent="0" />
        <mxCell id="P0CdFghxetfQh-vtBJzi-1" value="堂食菜谱套餐&lt;br&gt;ts_pubpackage" style="rounded=1;whiteSpace=wrap;html=1;" vertex="1" parent="1">
          <mxGeometry x="150" y="215" width="135" height="60" as="geometry" />
        </mxCell>
        <mxCell id="P0CdFghxetfQh-vtBJzi-2" value="1" style="text;html=1;align=center;verticalAlign=middle;resizable=0;points=[];autosize=1;" vertex="1" parent="1">
          <mxGeometry x="174" y="350" width="20" height="20" as="geometry" />
        </mxCell>
        <mxCell id="P0CdFghxetfQh-vtBJzi-3" value="套餐明细&lt;br&gt;ts_package_dtl" style="rounded=1;whiteSpace=wrap;html=1;" vertex="1" parent="1">
          <mxGeometry x="50" y="330" width="130" height="60" as="geometry" />
        </mxCell>
        <mxCell id="P0CdFghxetfQh-vtBJzi-4" value="" style="endArrow=none;html=1;entryX=0.176;entryY=1.033;entryDx=0;entryDy=0;exitX=0.75;exitY=0;exitDx=0;exitDy=0;entryPerimeter=0;" edge="1" parent="1" source="P0CdFghxetfQh-vtBJzi-3" target="P0CdFghxetfQh-vtBJzi-1">
          <mxGeometry width="50" height="50" relative="1" as="geometry">
            <mxPoint x="170" y="380" as="sourcePoint" />
            <mxPoint x="220" y="330" as="targetPoint" />
          </mxGeometry>
        </mxCell>
        <mxCell id="P0CdFghxetfQh-vtBJzi-5" value="1" style="text;html=1;align=center;verticalAlign=middle;resizable=0;points=[];autosize=1;" vertex="1" parent="1">
          <mxGeometry x="144" y="275" width="20" height="20" as="geometry" />
        </mxCell>
        <mxCell id="P0CdFghxetfQh-vtBJzi-6" value="套餐明细可替换菜&lt;br&gt;ts_item_pkg" style="rounded=1;whiteSpace=wrap;html=1;" vertex="1" parent="1">
          <mxGeometry x="250" y="330" width="130" height="60" as="geometry" />
        </mxCell>
        <mxCell id="P0CdFghxetfQh-vtBJzi-7" value="" style="endArrow=none;html=1;entryX=0;entryY=0.5;entryDx=0;entryDy=0;exitX=1;exitY=0.5;exitDx=0;exitDy=0;" edge="1" parent="1" source="P0CdFghxetfQh-vtBJzi-3" target="P0CdFghxetfQh-vtBJzi-6">
          <mxGeometry width="50" height="50" relative="1" as="geometry">
            <mxPoint x="420" y="360" as="sourcePoint" />
            <mxPoint x="470" y="310" as="targetPoint" />
          </mxGeometry>
        </mxCell>
        <mxCell id="P0CdFghxetfQh-vtBJzi-8" value="N" style="text;html=1;align=center;verticalAlign=middle;resizable=0;points=[];autosize=1;" vertex="1" parent="1">
          <mxGeometry x="130" y="310" width="20" height="20" as="geometry" />
        </mxCell>
        <mxCell id="P0CdFghxetfQh-vtBJzi-9" value="N" style="text;html=1;align=center;verticalAlign=middle;resizable=0;points=[];autosize=1;" vertex="1" parent="1">
          <mxGeometry x="230" y="350" width="20" height="20" as="geometry" />
        </mxCell>
        <mxCell id="P0CdFghxetfQh-vtBJzi-10" value="扫码菜谱套餐&lt;br&gt;ts_scan_pubpackage" style="rounded=1;whiteSpace=wrap;html=1;" vertex="1" parent="1">
          <mxGeometry x="580" y="230" width="135" height="60" as="geometry" />
        </mxCell>
        <mxCell id="P0CdFghxetfQh-vtBJzi-11" value="区域菜谱套餐&lt;br&gt;ts_area_pubitem" style="rounded=1;whiteSpace=wrap;html=1;" vertex="1" parent="1">
          <mxGeometry x="450" y="330" width="135" height="60" as="geometry" />
        </mxCell>
        <mxCell id="P0CdFghxetfQh-vtBJzi-12" value="集团套餐&lt;br&gt;t_packge" style="rounded=1;whiteSpace=wrap;html=1;" vertex="1" parent="1">
          <mxGeometry x="370" y="130" width="120" height="60" as="geometry" />
        </mxCell>
        <mxCell id="P0CdFghxetfQh-vtBJzi-13" value="集团套餐明细&lt;br&gt;t_package_detail" style="rounded=1;whiteSpace=wrap;html=1;" vertex="1" parent="1">
          <mxGeometry x="220" y="20" width="130" height="60" as="geometry" />
        </mxCell>
        <mxCell id="P0CdFghxetfQh-vtBJzi-14" value="集团套餐明细可替换菜&lt;br&gt;t_package_itempkg" style="rounded=1;whiteSpace=wrap;html=1;" vertex="1" parent="1">
          <mxGeometry x="490" y="20" width="130" height="60" as="geometry" />
        </mxCell>
        <mxCell id="P0CdFghxetfQh-vtBJzi-15" value="" style="endArrow=none;html=1;entryX=0.5;entryY=1;entryDx=0;entryDy=0;" edge="1" parent="1" source="P0CdFghxetfQh-vtBJzi-12" target="P0CdFghxetfQh-vtBJzi-13">
          <mxGeometry width="50" height="50" relative="1" as="geometry">
            <mxPoint x="390" y="210" as="sourcePoint" />
            <mxPoint x="440" y="160" as="targetPoint" />
          </mxGeometry>
        </mxCell>
        <mxCell id="P0CdFghxetfQh-vtBJzi-17" value="N" style="text;html=1;align=center;verticalAlign=middle;resizable=0;points=[];labelBackgroundColor=#ffffff;" vertex="1" connectable="0" parent="P0CdFghxetfQh-vtBJzi-15">
          <mxGeometry x="0.8494" y="-2" relative="1" as="geometry">
            <mxPoint x="-7.54" y="8.13" as="offset" />
          </mxGeometry>
        </mxCell>
        <mxCell id="P0CdFghxetfQh-vtBJzi-16" value="1" style="text;html=1;align=center;verticalAlign=middle;resizable=0;points=[];autosize=1;" vertex="1" parent="1">
          <mxGeometry x="370" y="110" width="20" height="20" as="geometry" />
        </mxCell>
        <mxCell id="P0CdFghxetfQh-vtBJzi-18" value="" style="endArrow=none;html=1;entryX=0;entryY=0.5;entryDx=0;entryDy=0;exitX=1;exitY=0.5;exitDx=0;exitDy=0;" edge="1" parent="1" source="P0CdFghxetfQh-vtBJzi-13" target="P0CdFghxetfQh-vtBJzi-14">
          <mxGeometry width="50" height="50" relative="1" as="geometry">
            <mxPoint x="390" y="210" as="sourcePoint" />
            <mxPoint x="440" y="160" as="targetPoint" />
          </mxGeometry>
        </mxCell>
        <mxCell id="P0CdFghxetfQh-vtBJzi-19" value="1" style="text;html=1;align=center;verticalAlign=middle;resizable=0;points=[];labelBackgroundColor=#ffffff;" vertex="1" connectable="0" parent="P0CdFghxetfQh-vtBJzi-18">
          <mxGeometry x="-0.8229" relative="1" as="geometry">
            <mxPoint as="offset" />
          </mxGeometry>
        </mxCell>
        <mxCell id="P0CdFghxetfQh-vtBJzi-20" value="N" style="text;html=1;align=center;verticalAlign=middle;resizable=0;points=[];labelBackgroundColor=#ffffff;" vertex="1" connectable="0" parent="P0CdFghxetfQh-vtBJzi-18">
          <mxGeometry x="0.8343" y="1" relative="1" as="geometry">
            <mxPoint as="offset" />
          </mxGeometry>
        </mxCell>
        <mxCell id="P0CdFghxetfQh-vtBJzi-21" value="" style="endArrow=classic;html=1;entryX=0.01;entryY=0.907;entryDx=0;entryDy=0;entryPerimeter=0;" edge="1" parent="1" source="P0CdFghxetfQh-vtBJzi-1" target="P0CdFghxetfQh-vtBJzi-12">
          <mxGeometry width="50" height="50" relative="1" as="geometry">
            <mxPoint x="390" y="210" as="sourcePoint" />
            <mxPoint x="380" y="180" as="targetPoint" />
          </mxGeometry>
        </mxCell>
        <mxCell id="P0CdFghxetfQh-vtBJzi-22" value="" style="endArrow=classic;html=1;exitX=0.5;exitY=0;exitDx=0;exitDy=0;entryX=0.5;entryY=1;entryDx=0;entryDy=0;" edge="1" parent="1" source="P0CdFghxetfQh-vtBJzi-11" target="P0CdFghxetfQh-vtBJzi-12">
          <mxGeometry width="50" height="50" relative="1" as="geometry">
            <mxPoint x="390" y="210" as="sourcePoint" />
            <mxPoint x="440" y="160" as="targetPoint" />
          </mxGeometry>
        </mxCell>
        <mxCell id="P0CdFghxetfQh-vtBJzi-23" value="" style="endArrow=classic;html=1;entryX=1;entryY=1;entryDx=0;entryDy=0;exitX=0;exitY=0;exitDx=0;exitDy=0;" edge="1" parent="1" source="P0CdFghxetfQh-vtBJzi-10" target="P0CdFghxetfQh-vtBJzi-12">
          <mxGeometry width="50" height="50" relative="1" as="geometry">
            <mxPoint x="390" y="210" as="sourcePoint" />
            <mxPoint x="440" y="160" as="targetPoint" />
          </mxGeometry>
        </mxCell>
      </root>
    </mxGraphModel>
  </diagram>
</mxfile>
